<svg height="511pt" viewBox="0 0 511 511.99989" width="511pt" xmlns="http://www.w3.org/2000/svg"><path d="m462.015625 308.222656c-32.933594 32.660156-68.84375 62.171875-107.265625 88.152344-1.621094 1.109375-3.242188 2.21875-4.863281 3.242188-.902344-10.765626-3.257813-21.355469-6.996094-31.488282-1.453125-3.9375-3.132813-7.78125-5.035156-11.519531-2.933594-5.9375-6.359375-11.621094-10.242188-16.984375 28.300781-32.59375 38.191407-77.292969 26.285157-118.78125-.511719-1.878906-1.109376-3.671875-1.707032-5.460938-.511718-1.621093-1.109375-3.160156-1.707031-4.695312-.023437-.128906-.082031-.246094-.171875-.339844-19.242188-50.5-68.148438-83.449218-122.179688-82.320312-54.027343 1.128906-101.515624 36.097656-118.628906 87.355468-.597656 1.789063-1.195312 3.582032-1.707031 5.460938-9.578125 33.34375-5.140625 69.15625 12.285156 99.15625v.085938c4.089844 6.90625 8.773438 13.445312 13.996094 19.539062-.851563 1.109375-1.621094 2.304688-2.390625 3.5-11.035156 16.269531-17.8125 35.046875-19.710938 54.613281-20.664062-16.046875-38.222656-35.742187-51.796874-58.113281-38.144532-93.011719-6.910157-212.957031 85.332031-254.855469 40.449219-18.347656 118.015625-38 192-43.375zm0 0" fill="#e3e7f2"/><path d="m462.015625 308.222656c-32.933594 32.660156-68.84375 62.171875-107.265625 88.152344-1.621094 1.109375-3.242188 2.21875-4.863281 3.242188-.742188-8.9375-2.515625-17.757813-5.292969-26.285157.515625-.339843 1.109375-.765625 1.625-1.109375 37.789062-25.507812 73.128906-54.476562 105.554688-86.527344zm0 0" fill="#a4c2f7"/><path d="m491.367188 321.363281c-5.15625 2.335938-11.035157 2.527344-16.332032.523438-5.296875-2-9.582031-6.023438-11.910156-11.1875l-1.109375-2.476563-121.003906-267.09375-1.109375-2.472656c-4.875-10.722656-.136719-23.367188 10.582031-28.246094 10.746094-4.824218 23.367187-.054687 28.246094 10.667969l123.304687 272.042969c2.335938 5.160156 2.523438 11.035156.523438 16.332031-2 5.300781-6.027344 9.585937-11.191406 11.910156zm0 0" fill="#e3e7f2"/><path d="m352.191406 215.382812-26.964844-3.757812-54.785156-7.507812-38.058594-73.214844-1.535156-2.902344c55.019532.03125 103.867188 35.210938 121.34375 87.382812zm0 0" fill="#a4c2f7"/><path d="m230.847656 128-39.597656 76.117188-81.746094 11.265624c17.472656-52.171874 66.320313-87.351562 121.34375-87.382812zm0 0" fill="#e3e7f2"/><path d="m358.847656 256c.039063 30.734375-11.058594 60.441406-31.234375 83.625-7.300781-9.96875-16.042969-18.796875-25.941406-26.195312l-6.824219-37.886719 37.375-34.648438 21.675782-20.050781c3.300781 11.425781 4.96875 23.261719 4.949218 35.15625zm0 0" fill="#a4c2f7"/><path d="m329.492188 211.625-54.785157-7.507812-38.058593-73.214844c42.683593 9.324218 77.675781 39.75 92.84375 80.722656zm0 0" fill="#e3e7f2"/><path d="m337.511719 256c.023437 23.964844-6.71875 47.453125-19.453125 67.753906-3.800782-3.710937-7.851563-7.160156-12.117188-10.324218l-6.828125-37.886719 37.375-34.648438c.6875 5.007813 1.027344 10.054688 1.023438 15.105469zm0 0" fill="#e3e7f2"/><path d="m166.847656 275.542969-6.828125 37.886719c-9.925781 7.367187-18.671875 16.199218-25.941406 26.195312-28.300781-32.59375-38.191406-77.292969-26.28125-118.78125zm0 0" fill="#e3e7f2"/><path d="m294.847656 275.542969 6.824219 37.886719c-7.117187-5.273438-14.820313-9.714844-22.953125-13.226563-11.109375-4.914063-22.910156-8.078125-34.988281-9.386719-4.28125-.441406-8.582031-.671875-12.882813-.683594-25.5-.035156-50.332031 8.132813-70.828125 23.296876l3.328125-18.261719 3.5-19.625-59.050781-54.699219c.511719-1.878906 1.109375-3.671875 1.707031-5.460938l81.746094-11.265624 30.039062-57.769532 9.558594-18.347656 38.824219 74.667969.769531 1.449219 60.84375 8.363281 20.90625 2.902343c.597656 1.789063 1.195313 3.582032 1.707032 5.460938zm0 0" fill="#a4c2f7"/><path d="m278.71875 300.203125 1.621094 8.960937c-33.8125-24.945312-78.253906-30.261718-116.992188-13.996093l3.5-19.625-59.050781-54.699219c.511719-1.878906 1.109375-3.671875 1.707031-5.460938l81.746094-11.265624 30.039062-57.769532 27.820313 53.503906 20.5625 2.816407 61.183594 8.445312c.195312.4375.335937.898438.429687 1.367188.425782 1.363281.9375 2.730469 1.277344 4.09375l-59.050781 54.699219zm0 0" fill="#e3e7f2"/><path d="m230.847656 332.800781c-4.230468-.007812-8.457031.335938-12.628906 1.023438 41.535156 6.492187 72.152344 42.269531 72.152344 84.308593 0 42.039063-30.617188 77.816407-72.152344 84.308594 4.171875.6875 8.398438 1.03125 12.628906 1.023438 47.125 0 85.332032-38.203125 85.332032-85.332032 0-47.128906-38.207032-85.332031-85.332032-85.332031zm0 0" fill="#a4c2f7"/><path d="m218.21875 333.824219c-.085938-.085938-.171875-.085938-.34375 0-41.535156 6.492187-72.152344 42.269531-72.152344 84.308593 0 42.039063 30.617188 77.816407 72.152344 84.308594.171875.085938.257812.085938.34375 0 41.535156-6.492187 72.152344-42.269531 72.152344-84.308594 0-42.039062-30.617188-77.816406-72.152344-84.308593zm12.628906 135.507812c-4.320312-.011719-8.617187-.554687-12.800781-1.621093-22.605469-5.8125-38.40625-26.195313-38.40625-49.535157 0-23.339843 15.800781-43.722656 38.40625-49.535156 4.171875-1.132813 8.476563-1.707031 12.800781-1.707031 28.277344 0 51.199219 22.921875 51.199219 51.199218 0 28.277344-22.921875 51.199219-51.199219 51.199219zm0 0" fill="#e3e7f2"/><path d="m145.511719 84.769531c-92.242188 41.898438-123.476563 161.84375-85.332031 254.855469 13.574218 22.371094 31.132812 42.066406 51.796874 58.113281.710938-6.640625 1.988282-13.207031 3.824219-19.625-11.734375-11.382812-21.839843-24.335937-30.019531-38.488281-38.144531-93.011719-6.914062-212.957031 85.332031-254.855469" fill="#fff"/><path d="m51.722656 333.160156c-7.738281-17.738281-13.054687-36.433594-15.8125-55.589844-2.28125-19.214843-1.933594-38.65625 1.042969-57.777343 10.835937-64.480469 53.019531-119.355469 112.542969-146.40625l7.050781 15.546875c-54.359375 24.695312-92.882813 74.808594-102.765625 133.691406-2.691406 17.457031-3.011719 35.195312-.949219 52.738281 2.542969 17.484375 7.398438 34.554688 14.4375 50.761719zm0 0" fill="#fff"/><g fill="#428dff"><path d="m46.578125 289.074219c-2.28125.4375-4.273437 1.808593-5.492187 3.78125-1.222657 1.976562-1.558594 4.371093-.933594 6.605469 1.707031 5.699218 3.011718 11.527343 5.042968 17.066406l6.527344 16.589844 15.546875-7.03125-5.972656-15.175782c-1.867187-5.117187-3.027344-10.425781-4.597656-15.621094-1.292969-4.355468-5.65625-7.035156-10.121094-6.214843zm0 0"/><path d="m156.546875 88.925781-7.050781-15.539062c-59.523438 27.050781-101.707032 81.925781-112.542969 146.40625l-1.085937 8.847656c-.351563 2.261719.246093 4.566406 1.65625 6.371094 1.410156 1.800781 3.507812 2.9375 5.785156 3.136719 4.621094.371093 8.753906-2.867188 9.5-7.441407l.972656-8.082031c9.882812-58.886719 48.402344-109 102.765625-133.699219zm0 0"/><path d="m34.785156 264.242188c.1875 2.324218 1.234375 4.492187 2.933594 6.085937l1.359375.929687c.492187.285157 1.027344.5 1.585937.632813.511719.191406 1.050782.300781 1.59375.324219.570313.039062 1.140626.039062 1.707032 0 2.25-.289063 4.328125-1.363282 5.855468-3.039063.703126-.839843 1.242188-1.808593 1.585938-2.851562 1.039062-3.171875.066406-6.660157-2.464844-8.839844-.847656-.71875-1.800781-1.292969-2.832031-1.707031-1.027344-.414063-2.121094-.625-3.226563-.621094-2.285156.050781-4.457031 1.003906-6.050781 2.644531-1.476562 1.808594-2.207031 4.113281-2.046875 6.441407zm0 0"/><path d="m153.03125 89.683594c-4.011719-.003906-7.480469-2.804688-8.328125-6.726563s1.152344-7.90625 4.804687-9.570312c43.230469-19.574219 118.160157-35.566407 190.898438-40.765625 3.046875-.214844 5.980469 1.210937 7.691406 3.742187 1.710938 2.535157 1.945313 5.785157.605469 8.535157-1.335937 2.75-4.035156 4.574218-7.085937 4.792968-70.878907 5.058594-143.53125 20.476563-185.078126 39.25-1.105468.496094-2.300781.746094-3.507812.742188zm0 0"/><path d="m111.96875 406.273438c-1.957031-.003907-3.855469-.679688-5.375-1.914063-23.589844-19.125-42.375-43.503906-54.863281-71.183594-1.824219-4.265625.089843-9.207031 4.3125-11.125 4.222656-1.921875 9.203125-.117187 11.21875 4.058594 11.398437 25.277344 28.550781 47.539063 50.089843 65 2.8125 2.277344 3.882813 6.078125 2.667969 9.488281-1.210937 3.410156-4.441406 5.683594-8.058593 5.675782zm0 0"/><path d="m349.894531 408.148438c-3.78125.003906-7.113281-2.480469-8.1875-6.109376-1.074219-3.625.363281-7.523437 3.535157-9.582031 39.757812-26.453125 76.859374-56.699219 110.78125-90.308593 3.402343-2.992188 8.546874-2.804688 11.722656.421874 3.175781 3.230469 3.273437 8.378907.222656 11.730469-34.75 34.417969-72.761719 65.390625-113.492188 92.472657-1.363281.890624-2.953124 1.367187-4.582031 1.375zm0 0"/><path d="m482.578125 331.800781c-11.722656-.015625-22.359375-6.875-27.210937-17.550781l-123.246094-272.054688c-4.40625-9.71875-3.289063-21.050781 2.929687-29.722656 6.214844-8.675781 16.585938-13.375 27.207031-12.328125 10.621094 1.046875 19.875 7.679688 24.277344 17.398438l123.25 272.0625c6.796875 15.019531.136719 32.710937-14.882812 39.515625-3.871094 1.761718-8.070313 2.675781-12.324219 2.679687zm-123.269531-314.734375c-4.347656.007813-8.390625 2.21875-10.746094 5.871094-2.351562 3.65625-2.6875 8.253906-.894531 12.210938l123.253906 272.050781c2.917969 6.4375 10.492187 9.292969 16.929687 6.382812 6.433594-2.921875 9.285157-10.503906 6.367188-16.9375l-123.230469-272.058593c-2.078125-4.585938-6.648437-7.527344-11.679687-7.519532zm0 0"/><path d="m327.613281 348.160156c-3.339843 0-6.375-1.949218-7.765625-4.988281-1.386718-3.039063-.875-6.609375 1.316406-9.132813 18.789063-21.660156 29.140626-49.367187 29.148438-78.039062.015625-11.089844-1.539062-22.128906-4.609375-32.785156-14.675781-51.253906-61.535156-86.578125-114.847656-86.578125s-100.171875 35.324219-114.851563 86.578125c-3.078125 10.65625-4.636718 21.691406-4.625 32.785156.011719 28.671875 10.359375 56.378906 29.152344 78.039062 3.085938 3.5625 2.699219 8.953126-.863281 12.039063s-8.953125 2.699219-12.039063-.863281c-21.476562-24.761719-33.304687-56.4375-33.316406-89.214844-.019531-12.703125 1.761719-25.34375 5.292969-37.546875 16.78125-58.5625 70.328125-98.921875 131.25-98.921875 60.917969 0 114.46875 40.359375 131.25 98.921875 3.519531 12.203125 5.296875 24.84375 5.273437 37.546875 0 32.773438-11.816406 64.449219-33.28125 89.214844-1.628906 1.878906-3.996094 2.957031-6.484375 2.945312zm0 0"/><path d="m160.019531 321.960938c-2.527343.003906-4.929687-1.117188-6.550781-3.054688-1.621094-1.941406-2.300781-4.5-1.855469-6.988281l5.972657-33.277344-55.59375-51.542969c-3.457032-3.203125-3.660157-8.605468-.457032-12.0625 3.207032-3.457031 8.605469-3.660156 12.0625-.457031l59.050782 54.707031c2.117187 1.984375 3.082031 4.910156 2.558593 7.765625l-6.824219 37.890625c-.730468 4.050782-4.246093 7.003906-8.363281 7.019532zm0 0"/><path d="m301.671875 321.960938c-4.128906 0-7.664063-2.957032-8.394531-7.019532l-6.828125-37.890625c-.523438-2.855469.441406-5.78125 2.558593-7.765625l59.050782-54.707031c3.457031-3.203125 8.859375-3 12.0625.457031 3.207031 3.457032 3 8.859375-.457032 12.0625l-55.628906 51.523438 5.976563 33.28125c.449219 2.480468-.21875 5.03125-1.828125 6.972656-1.605469 1.941406-3.992188 3.070312-6.511719 3.085938zm0 0"/><path d="m352.199219 223.914062c-.394531 0-.789063-.027343-1.179688-.078124l-81.746093-11.261719c-2.742188-.382813-5.128907-2.066407-6.402344-4.523438l-32.023438-61.558593-32.027344 61.558593c-1.273437 2.457031-3.660156 4.140625-6.398437 4.523438l-81.75 11.261719c-4.625.5625-8.84375-2.691407-9.476563-7.304688-.636718-4.613281 2.542969-8.886719 7.144532-9.597656l77.382812-10.667969 37.546875-72.199219c1.613281-2.636718 4.480469-4.242187 7.566407-4.242187 3.089843 0 5.957031 1.605469 7.570312 4.242187l37.5625 72.199219 77.382812 10.667969c4.421876.628906 7.613282 4.566406 7.308594 9.023437-.300781 4.460938-3.992187 7.929688-8.460937 7.957031zm0 0"/><path d="m93.28125 132.523438c-4.132812-.027344-7.652344-3.011719-8.355469-7.082032-.46875-2.699218-3.292969-12.058594-20.070312-28.265625-3.976563 5.203125-8.542969 9.925781-13.609375 14.074219-7.683594 7.183594-18.359375 10.21875-28.671875 8.148438-10.292969-2.402344-18.414063-10.285157-21.121094-20.5-2.707031-10.214844.449219-21.089844 8.199219-28.269532 15.515625-15.015625 36.378906-9.386718 51.824218 1.246094 1.023438-1.632812 2.03125-3.261719 3.019532-4.886719 5.507812-8.757812 10.492187-17.835937 14.925781-27.179687 2.054687-4.171875 7.074219-5.929688 11.28125-3.953125 4.210937 1.976562 6.0625 6.960937 4.164063 11.207031-4.699219 9.929688-9.984376 19.578125-15.828126 28.882812-1.425781 2.339844-2.886718 4.703126-4.394531 7.058594 19.761719 18.542969 25.675781 31.625 27.050781 39.535156.808594 4.640626-2.296874 9.0625-6.9375 9.871094-.488281.078125-.984374.117188-1.476562.113282zm-60.902344-53.964844c-4.027344-.089844-7.917968 1.449218-10.796875 4.265625-3.074219 2.785156-4.515625 6.953125-3.8125 11.042969 1 4.386718 4.378907 7.839843 8.746094 8.933593 5.160156.632813 10.324219-1.15625 13.984375-4.847656 4.261719-3.511719 8.082031-7.519531 11.386719-11.945313-5.671875-4.269531-12.433594-6.851562-19.507813-7.449218zm0 0"/><path d="m349.878906 408.148438c-4.429687-.003907-8.121094-3.402344-8.492187-7.816407-1.683594-20.105469-8.835938-39.367187-20.683594-55.695312-6.761719-9.304688-14.90625-17.515625-24.148437-24.355469-39.09375-28.832031-92.410157-28.832031-131.5 0-9.226563 6.835938-17.355469 15.042969-24.097657 24.335938-11.5 15.839843-18.570312 34.460937-20.480469 53.941406-.183593 2.269531-1.28125 4.367187-3.039062 5.8125-1.757812 1.449218-4.027344 2.121094-6.289062 1.867187-2.253907-.214843-4.332032-1.320312-5.773438-3.070312s-2.125-4-1.90625-6.257813c2.21875-22.5 10.398438-44.003906 23.699219-62.292968 7.757812-10.707032 17.109375-20.164063 27.730469-28.039063 45.128906-33.292969 106.683593-33.292969 151.808593 0 10.636719 7.878906 20.003907 17.335937 27.777344 28.046875 13.6875 18.847656 21.949219 41.082031 23.890625 64.292969.191406 2.253906-.519531 4.492187-1.980469 6.222656-1.457031 1.730469-3.542969 2.808594-5.800781 3-.230469 0-.46875.007813-.714844.007813zm0 0"/><path d="m230.847656 512c-51.84375 0-93.867187-42.027344-93.867187-93.867188 0-51.839843 42.023437-93.867187 93.867187-93.867187 51.839844 0 93.867188 42.027344 93.867188 93.867187-.0625 51.816407-42.054688 93.804688-93.867188 93.867188zm0-170.667969c-31.0625 0-59.066406 18.714844-70.957031 47.410157-11.886719 28.699218-5.316406 61.730468 16.648437 83.695312 21.964844 21.964844 55 28.535156 83.699219 16.648438 28.695313-11.886719 47.40625-39.890626 47.40625-70.953126-.046875-42.394531-34.402343-76.753906-76.796875-76.800781zm0 0"/><path d="m230.847656 477.867188c-32.992187 0-59.734375-26.746094-59.734375-59.734376 0-32.988281 26.742188-59.734374 59.734375-59.734374 32.988282 0 59.730469 26.746093 59.730469 59.734374-.035156 32.976563-26.757813 59.695313-59.730469 59.734376zm0-102.402344c-23.566406 0-42.667968 19.105468-42.667968 42.667968 0 23.566407 19.101562 42.667969 42.667968 42.667969 23.5625 0 42.664063-19.101562 42.664063-42.667969-.027344-23.550781-19.113281-42.636718-42.664063-42.667968zm0 0"/><path d="m230.847656 477.867188c-4.714844 0-8.535156-3.820313-8.535156-8.535157v-102.398437c0-4.714844 3.820312-8.535156 8.535156-8.535156 4.710938 0 8.53125 3.820312 8.53125 8.535156v102.398437c0 4.714844-3.820312 8.535157-8.53125 8.535157zm0 0"/><path d="m282.046875 426.667969h-102.402344c-4.710937 0-8.53125-3.820313-8.53125-8.535157 0-4.710937 3.820313-8.53125 8.53125-8.53125h102.402344c4.710937 0 8.53125 3.820313 8.53125 8.53125 0 4.714844-3.820313 8.535157-8.53125 8.535157zm0 0"/><path d="m68.714844 25.601562c-2.265625-.003906-4.433594-.902343-6.035156-2.5l-8.53125-8.535156c-3.234376-3.347656-3.191407-8.671875.101562-11.960937 3.292969-3.292969 8.613281-3.339844 11.960938-.105469l8.535156 8.535156c2.441406 2.4375 3.167968 6.109375 1.847656 9.296875s-4.429688 5.265625-7.878906 5.269531zm0 0"/><path d="m128.445312 51.199219h-8.53125c-4.714843 0-8.535156-3.820313-8.535156-8.53125 0-4.714844 3.820313-8.535157 8.535156-8.535157h8.53125c4.714844 0 8.535157 3.820313 8.535157 8.535157 0 4.710937-3.820313 8.53125-8.535157 8.53125zm0 0"/><path d="m102.847656 25.601562c-3.453125-.003906-6.5625-2.082031-7.882812-5.269531-1.320313-3.1875-.589844-6.859375 1.847656-9.296875l8.535156-8.535156c3.347656-3.234375 8.667969-3.1875 11.960938.105469 3.292968 3.289062 3.339844 8.613281.105468 11.960937l-8.535156 8.535156c-1.597656 1.597657-3.769531 2.496094-6.03125 2.5zm0 0"/></g></svg>