<svg id="Capa_1" enable-background="new 0 0 512 512" height="512" viewBox="0 0 512 512" width="512" xmlns="http://www.w3.org/2000/svg"><g><path d="m341.179 427.698h-219.392c-32.033 0-58.001-25.968-58.001-58.001v-261.483c0-32.033 25.968-58.001 58.001-58.001h219.392c32.033 0 58.001 25.968 58.001 58.001v261.483c0 32.033-25.968 58.001-58.001 58.001z" fill="#f9f6f9"/><path d="m149.373 427.701h-27.578c-32.044 0-58.008-25.964-58.008-58.008v-261.479c0-32.033 25.964-57.997 58.008-57.997h27.578c-32.033 0-57.997 25.964-57.997 57.997v261.479c0 32.044 25.964 58.008 57.997 58.008z" fill="#dddaec"/><path d="m280.774 38.62c-7.783-19.608-26.911-33.48-49.29-33.48-22.38 0-41.508 13.872-49.291 33.48h-18.678c-20.04 0-36.286 16.246-36.286 36.286 0 20.04 16.246 36.286 36.286 36.286h135.937c20.04 0 36.286-16.246 36.286-36.286 0-20.04-16.246-36.286-36.286-36.286z" fill="#ffe07d"/><path d="m248.772 8.033c-14.624 5.029-26.329 16.282-32.011 30.585h-18.68c-20.04 0-36.288 16.248-36.288 36.288 0 10.014 4.068 19.089 10.633 25.655 6.566 6.577 15.629 10.633 25.655 10.633h-34.564c-10.014 0-19.089-4.057-25.655-10.633-6.577-6.566-10.633-15.641-10.633-25.655 0-20.04 16.249-36.288 36.288-36.288h18.669c7.793-19.609 26.915-33.481 49.298-33.481 6.057 0 11.872 1.016 17.288 2.896z" fill="#f1ce64"/><circle cx="231.483" cy="58.165" fill="#407093" r="21.696"/><g><circle cx="63.787" cy="192.335" fill="#e28086" r="63.787"/><path d="m80.37 253.942c-5.288 1.424-10.842 2.183-16.58 2.183-35.23 0-63.79-28.559-63.79-63.79 0-35.23 28.559-63.79 63.79-63.79 5.738 0 11.293.758 16.58 2.183-27.196 7.286-47.22 32.105-47.22 61.607s20.024 54.321 47.22 61.607z" fill="#dd636e"/><g><path d="m65.762 233.48c-4.204 0-7.611-3.408-7.611-7.611v-58.81h-6.586c-4.204 0-7.611-3.408-7.611-7.611 0-4.204 3.408-7.611 7.611-7.611h14.197c4.204 0 7.611 3.408 7.611 7.611v66.422c0 4.202-3.408 7.61-7.611 7.61z" fill="#407093"/></g></g><g><circle cx="189.653" cy="317.704" fill="#a2e19f" r="63.787"/><path d="m206.236 379.312c-5.288 1.424-10.842 2.183-16.58 2.183-35.23 0-63.79-28.56-63.79-63.79s28.559-63.79 63.79-63.79c5.738 0 11.293.758 16.58 2.183-27.196 7.286-47.22 32.105-47.22 61.607.001 29.502 20.024 54.321 47.22 61.607z" fill="#97cf92"/><g><path d="m186.54 359.192c-12.908 0-13.883-.325-14.898-.664-2.508-.836-4.384-2.737-5.146-5.214-1.296-4.215.611-6.712 4.789-12.183 3.373-4.416 9.65-12.636 20.17-27.667 3.023-4.32 4.974-8.165 5.801-11.435l.205-1.603c-.218-4.984-4.339-8.971-9.376-8.971-4.475 0-8.348 3.178-9.208 7.558-.811 4.125-4.812 6.809-8.936 6.001-4.125-.81-6.812-4.811-6.001-8.936 2.259-11.5 12.414-19.846 24.146-19.846 15.013-.159 27.213 14.092 24.084 28.896-1.217 5.25-3.99 10.991-8.241 17.065-6.893 9.849-12.002 16.832-15.685 21.759 5.86-.012 12.912-.067 19.559-.151 4.212-.061 7.654 3.312 7.707 7.515s-3.312 7.654-7.515 7.707c-9.477.119-16.386.169-21.455.169z" fill="#407093"/></g></g><g><circle cx="315.519" cy="443.074" fill="#9dc6fb" r="63.787"/><path d="m332.103 504.681c-5.288 1.424-10.842 2.183-16.58 2.183-35.23 0-63.79-28.56-63.79-63.79s28.559-63.79 63.79-63.79c5.738 0 11.293.758 16.58 2.183-27.196 7.286-47.22 32.105-47.22 61.607s20.023 54.321 47.22 61.607z" fill="#80b4fb"/><g><path d="m315.907 485.644c-12.208 0-22.685-9.108-24.371-21.185-.157-1.128-.237-2.279-.237-3.423 0-4.204 3.408-7.612 7.611-7.612 4.204 0 7.612 3.408 7.612 7.612 0 .442.031.886.091 1.319.641 4.598 4.637 8.065 9.293 8.065 5.174 0 9.385-4.21 9.385-9.385 0-5.174-4.21-9.385-9.385-9.385-4.204 0-7.612-3.408-7.612-7.611 0-4.204 3.408-7.612 7.612-7.612 5.174 0 9.385-4.21 9.385-9.385 0-5.174-4.21-9.385-9.385-9.385-4.476 0-8.348 3.178-9.208 7.557-.81 4.125-4.811 6.811-8.936 6.002-4.125-.81-6.812-4.811-6.002-8.936 2.258-11.5 12.413-19.846 24.146-19.846 13.568 0 24.608 11.039 24.608 24.608 0 6.586-2.601 12.575-6.828 16.996 4.227 4.421 6.828 10.41 6.828 16.996.001 13.572-11.038 24.61-24.607 24.61z" fill="#407093"/></g></g><g fill="#e28086"><path d="m289.71 180.709h-118.301c-4.204 0-7.611-3.408-7.611-7.611 0-4.204 3.408-7.611 7.611-7.611h118.301c4.204 0 7.611 3.408 7.611 7.611.001 4.203-3.407 7.611-7.611 7.611z"/><path d="m250.349 219.184h-78.941c-4.204 0-7.611-3.408-7.611-7.611 0-4.204 3.408-7.611 7.611-7.611h78.941c4.204 0 7.611 3.408 7.611 7.611.001 4.204-3.407 7.611-7.611 7.611z"/></g><g fill="#a2e19f"><path d="m371.463 306.078h-94.949c-4.204 0-7.612-3.408-7.612-7.612s3.408-7.611 7.612-7.611h94.949c4.204 0 7.612 3.408 7.612 7.611s-3.408 7.612-7.612 7.612z"/><path d="m332.103 344.554h-55.589c-4.204 0-7.612-3.408-7.612-7.612s3.408-7.611 7.612-7.611h55.589c4.204 0 7.612 3.408 7.612 7.611s-3.408 7.612-7.612 7.612z"/></g><g fill="#9dc6fb"><path d="m504.388 431.447h-89.078c-4.204 0-7.612-3.408-7.612-7.612s3.408-7.611 7.612-7.611h89.078c4.204 0 7.612 3.408 7.612 7.611 0 4.205-3.408 7.612-7.612 7.612z"/><path d="m465.028 469.923h-49.718c-4.204 0-7.612-3.408-7.612-7.612s3.408-7.611 7.612-7.611h49.718c4.204 0 7.611 3.408 7.611 7.611.001 4.204-3.407 7.612-7.611 7.612z"/></g></g></svg>